<?xml version="1.0" standalone="no"?>
<!DOCTYPE svg PUBLIC "-//W3C//DTD SVG 20010904//EN"
 "http://www.w3.org/TR/2001/REC-SVG-20010904/DTD/svg10.dtd">
<svg version="1.0" xmlns="http://www.w3.org/2000/svg"
 width="300.000000pt" height="300.000000pt" viewBox="0 0 300.000000 300.000000"
 preserveAspectRatio="xMidYMid meet">
<metadata>
Created by potrace 1.16, written by Peter Selinger 2001-2019
</metadata>
<g transform="translate(0.000000,300.000000) scale(0.100000,-0.100000)"
fill="#000000" stroke="none">
<path d="M683 2330 c-172 -31 -330 -146 -413 -301 -44 -83 -60 -141 -67 -245
-14 -222 87 -423 278 -550 91 -60 153 -83 256 -95 289 -33 571 154 608 404 4
26 3 47 -2 47 -4 0 -21 -28 -36 -62 -15 -34 -29 -60 -31 -57 -2 2 4 41 15 87
20 83 23 202 5 203 -5 0 -19 -31 -31 -68 -27 -84 -52 -133 -68 -133 -6 -1 -25
-21 -40 -45 -34 -54 -143 -138 -217 -166 -76 -30 -199 -30 -261 -2 -24 12 -61
29 -83 39 -138 63 -239 281 -206 446 17 88 78 205 135 257 89 82 231 125 342
102 187 -37 329 -183 364 -376 8 -43 15 -61 17 -46 10 66 -48 232 -102 293
-42 47 -119 99 -205 139 -73 34 -93 39 -155 39 -39 0 -96 -7 -126 -15 -72 -19
-77 -11 -5 10 87 25 216 33 277 18 125 -32 279 -155 327 -260 14 -29 28 -53
32 -53 5 0 6 19 4 42 -8 82 -152 240 -266 293 -111 50 -249 72 -346 55z"/>
<path d="M1590 2140 c-13 -9 -13 -11 0 -20 8 -5 20 -10 26 -10 15 0 26 -293
22 -570 l-3 -205 -23 -3 c-47 -7 -15 -27 43 -27 61 0 86 18 41 29 l-24 6 -4
352 c-2 194 -3 354 -3 355 0 0 37 -58 83 -130 96 -153 208 -307 221 -307 17 0
148 200 249 380 l31 55 -2 -353 -2 -353 -23 -6 c-13 -3 -21 -10 -19 -17 5 -16
209 -15 214 1 2 6 -5 14 -16 18 -11 3 -21 16 -23 28 -2 12 -2 185 0 385 l2
362 25 0 c28 0 33 15 9 24 -9 3 -44 6 -78 6 -47 0 -67 -4 -78 -17 -8 -10 -58
-92 -111 -183 -134 -230 -113 -215 -179 -123 -31 43 -92 134 -135 203 l-79
125 -75 3 c-41 1 -81 -2 -89 -8z m270 -221 c69 -104 129 -196 135 -204 6 -10
4 -20 -9 -34 -19 -20 -19 -20 -67 44 -48 63 -249 370 -249 380 0 3 15 5 33 5
30 -1 38 -10 157 -191z m490 -141 c0 -183 -3 -357 -6 -385 -6 -50 -8 -53 -35
-53 l-29 0 0 375 c0 346 1 375 18 384 9 6 25 11 35 11 16 0 17 -22 17 -332z"/>
<path d="M1220 915 c0 -123 4 -195 10 -195 6 0 10 63 10 169 l0 168 30 -1 30
-1 0 -167 c0 -143 2 -168 15 -168 13 0 15 28 15 195 0 159 -3 195 -14 195 -7
0 -19 -7 -26 -15 -12 -14 -15 -14 -36 0 -13 8 -26 15 -29 15 -3 0 -5 -88 -5
-195z"/>
<path d="M1376 1102 c-2 -4 -8 -92 -12 -195 -6 -170 -5 -187 10 -187 12 0 16
10 16 40 0 33 3 40 20 40 17 0 20 -7 20 -40 0 -22 5 -40 10 -40 11 0 15 347 4
374 -6 17 -59 23 -68 8z"/>
<path d="M1490 915 c0 -167 2 -195 15 -195 11 0 15 11 15 40 0 29 4 40 15 40
11 0 15 -11 15 -40 0 -29 4 -40 15 -40 13 0 15 28 15 195 0 167 -2 195 -15
195 -13 0 -15 -23 -15 -145 0 -122 -2 -145 -15 -145 -13 0 -15 23 -15 145 0
122 -2 145 -15 145 -13 0 -15 -28 -15 -195z"/>
<path d="M1610 1029 c0 -46 3 -135 7 -196 l6 -113 37 0 c22 0 60 12 91 28 67
35 99 90 99 169 0 109 -70 183 -181 191 l-59 4 0 -83z m113 37 c44 -18 93 -76
101 -120 8 -44 -8 -101 -38 -134 -27 -31 -88 -62 -121 -62 l-25 0 0 165 0 165
25 0 c14 0 40 -6 58 -14z"/>
<path d="M2250 915 c0 -167 2 -195 15 -195 11 0 15 11 15 40 0 29 4 40 15 40
11 0 15 -11 15 -40 0 -29 4 -40 15 -40 13 0 15 28 15 195 0 167 -2 195 -15
195 -13 0 -15 -23 -15 -145 0 -122 -2 -145 -15 -145 -13 0 -15 23 -15 145 0
122 -2 145 -15 145 -13 0 -15 -28 -15 -195z"/>
<path d="M2475 1087 c-21 -12 -53 -42 -69 -65 -26 -36 -31 -53 -31 -100 0 -76
28 -128 89 -169 42 -29 57 -33 111 -33 54 0 69 4 111 33 48 32 77 76 89 135 6
31 6 32 -29 32 -20 0 -36 -4 -36 -10 0 -5 9 -10 20 -10 25 0 25 -11 0 -60 -29
-57 -73 -84 -145 -88 -71 -4 -118 17 -152 68 -49 71 -42 151 17 210 70 70 156
75 236 14 49 -38 54 -40 54 -21 0 17 -36 50 -77 71 -48 24 -139 21 -188 -7z"/>
</g>
</svg>
